# xmcd
#
# Track frame offsets:
#	150
#	16517
#	34066
#	54016
#	72448
#	84622
#	116907
#	131806
#	148306
#	163521
#	176423
#	188800
#	202752
#	218209
#	232006
#	251353
#	263572
#	294489
#	319246
#	331843
#	343370
#
# Disc length: 4745 seconds
#
# Revision: 0
# Processed by: cddbd v1.4PL0 Copyright (c) Steve Scherf et al.
# Submitted via: dBpowerAMP V4.0
#
DISCID=35128715
DTITLE=Bob Dylan - Greatest Hits Volume II
DYEAR=1900
DGENRE=
TTITLE0=Watching The River Flow
TTITLE1=Maggies Farm
TTITLE2=My Back Pages
TTITLE3=All I Really Want To Do
TTITLE4=Ill Be Your Baby Tonight
TTITLE5=Stuck Inside Of Mobile
TTITLE6=Lay Lady Lay
TTITLE7=Dont Think Twice It's Alright
TTITLE8=Tonight Ill Be Staying Here With You
TTITLE9=She Belongs To Me
TTITLE10=You Ain't Goin' Nowhere
TTITLE11=I Shall Be Released
TTITLE12=When I Paint My Masterpiece
TTITLE13=Tomorrow Is A Long Time
TTITLE14=Its All Over Now Baby Blue
TTITLE15=If Not For You
TTITLE16=A Hard Rain;s A-Gonna Fall
TTITLE17=Just Like Tom Thumb's Blues
TTITLE18=Quin The Eskimo
TTITLE19=All Allong The Watchtower
TTITLE20=Down In the Flood
EXTD=
EXTT0=
EXTT1=
EXTT2=
EXTT3=
EXTT4=
EXTT5=
EXTT6=
EXTT7=
EXTT8=
EXTT9=
EXTT10=
EXTT11=
EXTT12=
EXTT13=
EXTT14=
EXTT15=
EXTT16=
EXTT17=
EXTT18=
EXTT19=
EXTT20=
PLAYORDER=
